<svg width="32" height="32" viewBox="0 0 32 32" fill="none" xmlns="http://www.w3.org/2000/svg">
  <defs>
    <linearGradient id="fg" x1="0%" y1="0%" x2="100%" y2="100%">
      <stop offset="0%" stop-color="#A855F7"/>
      <stop offset="100%" stop-color="#6366F1"/>
    </linearGradient>
    <linearGradient id="flame" x1="50%" y1="0%" x2="50%" y2="100%">
      <stop offset="0%" stop-color="#F97316"/>
      <stop offset="100%" stop-color="#FBBF24" stop-opacity="0"/>
    </linearGradient>
  </defs>

  <!-- Background -->
  <rect width="32" height="32" rx="8" fill="#18181B"/>

  <!-- Rocket -->
  <path
    d="M16 4
       L20 9
       L20 20
       L18 23
       L18 20
       L16 22
       L14 20
       L14 23
       L12 20
       L12 9
       Z"
    fill="url(#fg)"
  />

  <!-- Window -->
  <circle cx="16" cy="11" r="2.5" fill="#18181B"/>
  <circle cx="16" cy="10.5" r="1.5" fill="#A855F7" opacity="0.6"/>

  <!-- Left fin -->
  <path d="M12 16 L8 22 L11 22 L12 19 Z" fill="url(#fg)"/>

  <!-- Right fin -->
  <path d="M20 16 L24 22 L21 22 L20 19 Z" fill="url(#fg)"/>

  <!-- Flame -->
  <path
    d="M16 23 Q14 26 16 28 Q18 26 16 23"
    fill="url(#flame)"
  />
</svg>
